<svg width="42" height="43" viewBox="0 0 42 43" fill="none" xmlns="http://www.w3.org/2000/svg">
<path d="M1.32795 17.3124C0.690399 16.6942 1.03672 15.5764 1.89906 15.4692L14.118 13.9494C14.4695 13.9057 14.7748 13.6742 14.923 13.3372L20.0768 1.62026C20.4405 0.793352 21.5615 0.793193 21.9252 1.6201L27.079 13.337C27.2273 13.674 27.5305 13.9061 27.882 13.9498L40.1016 15.4692C40.964 15.5764 41.3093 16.6945 40.6718 17.3128L31.639 26.0741C31.3791 26.3261 31.2635 26.7012 31.3324 27.0652L33.7297 39.721C33.899 40.6142 32.9925 41.3063 32.2347 40.8615L21.498 34.5574C21.1891 34.3761 20.8139 34.3769 20.5051 34.5582L9.7672 40.8599C9.00945 41.3046 8.10133 40.6142 8.27056 39.721L10.6682 27.066C10.7372 26.702 10.6218 26.326 10.362 26.074L1.32795 17.3124Z" fill="#FF9010" stroke="#FF9010" stroke-width="2" stroke-linecap="round" stroke-linejoin="round"/>
</svg>
